<svg width="193" height="25" viewBox="0 0 193 25" fill="none" xmlns="http://www.w3.org/2000/svg">
<ellipse cx="10" cy="11.5" rx="10" ry="9.5" fill="#DF4646"/>
<path d="M34.4432 20.2301C33.4148 20.2301 32.4943 19.9659 31.6818 19.4375C30.8693 18.9091 30.2273 18.142 29.7557 17.1364C29.2841 16.1307 29.0483 14.9091 29.0483 13.4716C29.0483 12.017 29.2869 10.7898 29.7642 9.78977C30.2472 8.78409 30.8977 8.02557 31.7159 7.5142C32.5341 6.99716 33.446 6.73864 34.4517 6.73864C35.2188 6.73864 35.8494 6.86932 36.3438 7.13068C36.8381 7.38636 37.2301 7.69602 37.5199 8.05966C37.8097 8.41761 38.0341 8.75568 38.1932 9.07386H38.321V2.54545H41.4148V20H38.3807V17.9375H38.1932C38.0341 18.2557 37.804 18.5937 37.5028 18.9517C37.2017 19.304 36.804 19.6051 36.3097 19.8551C35.8153 20.1051 35.1932 20.2301 34.4432 20.2301ZM35.304 17.6989C35.9574 17.6989 36.5142 17.5227 36.9744 17.1705C37.4347 16.8125 37.7841 16.3153 38.0227 15.679C38.2614 15.0426 38.3807 14.3011 38.3807 13.4545C38.3807 12.608 38.2614 11.8722 38.0227 11.2472C37.7898 10.6222 37.4432 10.1364 36.983 9.78977C36.5284 9.44318 35.9688 9.26989 35.304 9.26989C34.6165 9.26989 34.0426 9.44886 33.5824 9.80682C33.1222 10.1648 32.7756 10.6591 32.5426 11.2898C32.3097 11.9205 32.1932 12.642 32.1932 13.4545C32.1932 14.2727 32.3097 15.0028 32.5426 15.6449C32.7813 16.2812 33.1307 16.7841 33.5909 17.1534C34.0568 17.517 34.6278 17.6989 35.304 17.6989ZM50.0179 20.2557C48.7054 20.2557 47.5718 19.983 46.6173 19.4375C45.6684 18.8864 44.9383 18.108 44.427 17.1023C43.9156 16.0909 43.6599 14.9006 43.6599 13.5312C43.6599 12.1847 43.9156 11.0028 44.427 9.9858C44.944 8.96307 45.6656 8.16761 46.5917 7.59943C47.5179 7.02557 48.6059 6.73864 49.8559 6.73864C50.6628 6.73864 51.4241 6.86932 52.14 7.13068C52.8616 7.38636 53.498 7.78409 54.0491 8.32386C54.6059 8.86364 55.0434 9.55114 55.3616 10.3864C55.6798 11.2159 55.8389 12.2045 55.8389 13.3523V14.2983H45.1088V12.2188H52.8815C52.8758 11.6278 52.748 11.1023 52.498 10.642C52.248 10.1761 51.8986 9.80966 51.4497 9.54261C51.0065 9.27557 50.4895 9.14205 49.8986 9.14205C49.2679 9.14205 48.7139 9.29545 48.2366 9.60227C47.7593 9.90341 47.3872 10.3011 47.1201 10.7955C46.8588 11.2841 46.7253 11.821 46.7196 12.4062V14.2216C46.7196 14.983 46.8588 15.6364 47.1372 16.1818C47.4156 16.7216 47.8048 17.1364 48.3048 17.4261C48.8048 17.7102 49.39 17.8523 50.0605 17.8523C50.5093 17.8523 50.9156 17.7898 51.2792 17.6648C51.6429 17.5341 51.9582 17.3438 52.2253 17.0938C52.4923 16.8438 52.694 16.5341 52.8304 16.1648L55.7111 16.4886C55.5292 17.25 55.1826 17.9148 54.6713 18.483C54.1656 19.0455 53.5179 19.483 52.7281 19.7955C51.9383 20.1023 51.0349 20.2557 50.0179 20.2557ZM57.969 6.90909H61.0542V20.75C61.0542 21.6932 60.8752 22.4716 60.5173 23.0852C60.1593 23.6989 59.6423 24.1563 58.9661 24.4574C58.29 24.7585 57.469 24.9091 56.5031 24.9091C56.3894 24.9091 56.2843 24.9063 56.1877 24.9006C56.0911 24.9006 55.986 24.8977 55.8724 24.892V22.3778C55.9576 22.3835 56.0343 22.3864 56.1025 22.3864C56.1707 22.392 56.2417 22.3949 56.3156 22.3949C56.9065 22.3949 57.3298 22.25 57.5855 21.9602C57.8411 21.6761 57.969 21.2585 57.969 20.7074V6.90909ZM59.5031 5.05114C59.0088 5.05114 58.5855 4.8892 58.2332 4.56534C57.8866 4.23579 57.7133 3.84091 57.7133 3.38068C57.7133 2.91477 57.8866 2.51989 58.2332 2.19602C58.5855 1.86648 59.0088 1.7017 59.5031 1.7017C59.9917 1.7017 60.4093 1.86648 60.7559 2.19602C61.1082 2.51989 61.2843 2.91477 61.2843 3.38068C61.2843 3.84091 61.1082 4.23579 60.7559 4.56534C60.4093 4.8892 59.9917 5.05114 59.5031 5.05114ZM67.5138 20.2642C66.6843 20.2642 65.9371 20.1165 65.2724 19.821C64.6133 19.5199 64.0905 19.0767 63.7042 18.4915C63.3235 17.9062 63.1332 17.1847 63.1332 16.3267C63.1332 15.5881 63.2695 14.9773 63.5422 14.4943C63.815 14.0114 64.1871 13.625 64.6587 13.3352C65.1303 13.0455 65.6616 12.8267 66.2525 12.679C66.8491 12.5256 67.4655 12.4148 68.1019 12.3466C68.869 12.267 69.4911 12.196 69.9684 12.1335C70.4457 12.0653 70.7922 11.9631 71.0082 11.8267C71.2297 11.6847 71.3405 11.4659 71.3405 11.1705V11.1193C71.3405 10.4773 71.1502 9.98011 70.7695 9.62784C70.3888 9.27557 69.8405 9.09943 69.1246 9.09943C68.369 9.09943 67.7695 9.2642 67.3263 9.59375C66.8888 9.9233 66.5934 10.3125 66.44 10.7614L63.5593 10.3523C63.7866 9.55682 64.1616 8.89205 64.6843 8.35795C65.207 7.81818 65.8462 7.41477 66.6019 7.14773C67.3576 6.875 68.1928 6.73864 69.1076 6.73864C69.7383 6.73864 70.3661 6.8125 70.9911 6.96023C71.6161 7.10795 72.1871 7.35227 72.7042 7.69318C73.2212 8.02841 73.636 8.4858 73.9485 9.06534C74.2667 9.64489 74.4258 10.3693 74.4258 11.2386V20H71.4599V18.2017H71.3576C71.1701 18.5653 70.9059 18.9062 70.565 19.2244C70.2297 19.5369 69.8065 19.7898 69.2951 19.983C68.7894 20.1705 68.1957 20.2642 67.5138 20.2642ZM68.315 17.9972C68.9343 17.9972 69.4712 17.875 69.9258 17.6307C70.3803 17.3807 70.7297 17.0511 70.9741 16.642C71.2241 16.233 71.3491 15.7869 71.3491 15.304V13.7614C71.2525 13.8409 71.0877 13.9148 70.8547 13.983C70.6275 14.0511 70.3718 14.1108 70.0877 14.1619C69.8036 14.2131 69.5224 14.2585 69.244 14.2983C68.9655 14.3381 68.7241 14.3722 68.5195 14.4006C68.0593 14.4631 67.6474 14.5653 67.2837 14.7074C66.9201 14.8494 66.6332 15.0483 66.4229 15.304C66.2127 15.554 66.1076 15.8778 66.1076 16.2756C66.1076 16.8438 66.315 17.2727 66.7297 17.5625C67.1445 17.8523 67.6729 17.9972 68.315 17.9972ZM77.048 20V6.90909H80.0395V9.09091H80.1759C80.4145 8.33523 80.8236 7.75284 81.4032 7.34375C81.9884 6.92898 82.656 6.72159 83.406 6.72159C83.5765 6.72159 83.7668 6.73011 83.977 6.74716C84.1929 6.75852 84.3719 6.77841 84.514 6.80682V9.64489C84.3833 9.59943 84.1759 9.55966 83.8918 9.52557C83.6134 9.4858 83.3435 9.46591 83.0821 9.46591C82.5196 9.46591 82.014 9.58807 81.5651 9.83239C81.1219 10.071 80.7725 10.4034 80.5168 10.8295C80.2611 11.2557 80.1333 11.7472 80.1333 12.304V20H77.048ZM91.3401 20.2557C90.0276 20.2557 88.894 19.983 87.9395 19.4375C86.9906 18.8864 86.2605 18.108 85.7491 17.1023C85.2378 16.0909 84.9821 14.9006 84.9821 13.5312C84.9821 12.1847 85.2378 11.0028 85.7491 9.9858C86.2662 8.96307 86.9878 8.16761 87.9139 7.59943C88.8401 7.02557 89.9281 6.73864 91.1781 6.73864C91.9849 6.73864 92.7463 6.86932 93.4622 7.13068C94.1838 7.38636 94.8202 7.78409 95.3713 8.32386C95.9281 8.86364 96.3656 9.55114 96.6838 10.3864C97.002 11.2159 97.1611 12.2045 97.1611 13.3523V14.2983H86.431V12.2188H94.2037C94.198 11.6278 94.0702 11.1023 93.8202 10.642C93.5702 10.1761 93.2207 9.80966 92.7719 9.54261C92.3287 9.27557 91.8116 9.14205 91.2207 9.14205C90.5901 9.14205 90.0361 9.29545 89.5588 9.60227C89.0815 9.90341 88.7094 10.3011 88.4423 10.7955C88.181 11.2841 88.0474 11.821 88.0418 12.4062V14.2216C88.0418 14.983 88.181 15.6364 88.4594 16.1818C88.7378 16.7216 89.127 17.1364 89.627 17.4261C90.127 17.7102 90.7122 17.8523 91.3827 17.8523C91.8315 17.8523 92.2378 17.7898 92.6014 17.6648C92.9651 17.5341 93.2804 17.3438 93.5474 17.0938C93.8145 16.8438 94.0162 16.5341 94.1526 16.1648L97.0332 16.4886C96.8514 17.25 96.5048 17.9148 95.9935 18.483C95.4878 19.0455 94.8401 19.483 94.0503 19.7955C93.2605 20.1023 92.3571 20.2557 91.3401 20.2557ZM89.9082 5.1875L91.8173 1.29261H94.8344L92.2179 5.1875H89.9082ZM134.306 6.90909V9.29545H126.567V6.90909H134.306ZM128.502 20V5.67329C128.502 4.79261 128.683 4.05966 129.047 3.47443C129.416 2.8892 129.911 2.4517 130.53 2.16193C131.149 1.87216 131.837 1.72727 132.593 1.72727C133.127 1.72727 133.601 1.76989 134.016 1.85511C134.431 1.94034 134.737 2.01705 134.936 2.08523L134.323 4.47159C134.192 4.43182 134.027 4.39204 133.828 4.35227C133.629 4.30682 133.408 4.28409 133.164 4.28409C132.59 4.28409 132.183 4.4233 131.945 4.7017C131.712 4.97443 131.595 5.36648 131.595 5.87784V20H128.502ZM144.586 14.4943V6.90909H147.671V20H144.679V17.6733H144.543C144.247 18.4062 143.762 19.0057 143.086 19.4716C142.415 19.9375 141.588 20.1705 140.605 20.1705C139.747 20.1705 138.989 19.9801 138.33 19.5994C137.676 19.2131 137.165 18.6534 136.796 17.9205C136.426 17.1818 136.242 16.2898 136.242 15.2443V6.90909H139.327V14.767C139.327 15.5966 139.554 16.2557 140.009 16.7443C140.463 17.233 141.06 17.4773 141.799 17.4773C142.253 17.4773 142.693 17.3665 143.12 17.1449C143.546 16.9233 143.895 16.5938 144.168 16.1562C144.446 15.7131 144.586 15.1591 144.586 14.4943ZM150.363 20V6.90909H153.312V9.13352H153.466C153.738 8.38352 154.19 7.7983 154.821 7.37784C155.451 6.9517 156.204 6.73864 157.079 6.73864C157.966 6.73864 158.713 6.95455 159.321 7.38636C159.934 7.8125 160.366 8.39489 160.616 9.13352H160.753C161.042 8.40625 161.531 7.8267 162.218 7.39489C162.912 6.95739 163.733 6.73864 164.682 6.73864C165.886 6.73864 166.869 7.11932 167.63 7.88068C168.392 8.64205 168.772 9.75284 168.772 11.2131V20H165.679V11.6903C165.679 10.8778 165.463 10.2841 165.031 9.90909C164.599 9.52841 164.071 9.33807 163.446 9.33807C162.701 9.33807 162.119 9.57102 161.699 10.0369C161.284 10.4972 161.076 11.0966 161.076 11.8352V20H158.051V11.5625C158.051 10.8864 157.846 10.3466 157.437 9.94318C157.034 9.53977 156.505 9.33807 155.852 9.33807C155.409 9.33807 155.005 9.4517 154.642 9.67898C154.278 9.90057 153.988 10.2159 153.772 10.625C153.557 11.0284 153.449 11.5 153.449 12.0398V20H150.363ZM175.189 20.2642C174.36 20.2642 173.613 20.1165 172.948 19.821C172.289 19.5199 171.766 19.0767 171.38 18.4915C170.999 17.9062 170.809 17.1847 170.809 16.3267C170.809 15.5881 170.945 14.9773 171.218 14.4943C171.491 14.0114 171.863 13.625 172.334 13.3352C172.806 13.0455 173.337 12.8267 173.928 12.679C174.525 12.5256 175.141 12.4148 175.778 12.3466C176.545 12.267 177.167 12.196 177.644 12.1335C178.121 12.0653 178.468 11.9631 178.684 11.8267C178.905 11.6847 179.016 11.4659 179.016 11.1705V11.1193C179.016 10.4773 178.826 9.98011 178.445 9.62784C178.064 9.27557 177.516 9.09943 176.8 9.09943C176.045 9.09943 175.445 9.2642 175.002 9.59375C174.564 9.9233 174.269 10.3125 174.116 10.7614L171.235 10.3523C171.462 9.55682 171.837 8.89205 172.36 8.35795C172.883 7.81818 173.522 7.41477 174.278 7.14773C175.033 6.875 175.868 6.73864 176.783 6.73864C177.414 6.73864 178.042 6.8125 178.667 6.96023C179.292 7.10795 179.863 7.35227 180.38 7.69318C180.897 8.02841 181.312 8.4858 181.624 9.06534C181.942 9.64489 182.101 10.3693 182.101 11.2386V20H179.135V18.2017H179.033C178.846 18.5653 178.582 18.9062 178.241 19.2244C177.905 19.5369 177.482 19.7898 176.971 19.983C176.465 20.1705 175.871 20.2642 175.189 20.2642ZM175.991 17.9972C176.61 17.9972 177.147 17.875 177.601 17.6307C178.056 17.3807 178.405 17.0511 178.65 16.642C178.9 16.233 179.025 15.7869 179.025 15.304V13.7614C178.928 13.8409 178.763 13.9148 178.53 13.983C178.303 14.0511 178.047 14.1108 177.763 14.1619C177.479 14.2131 177.198 14.2585 176.92 14.2983C176.641 14.3381 176.4 14.3722 176.195 14.4006C175.735 14.4631 175.323 14.5653 174.959 14.7074C174.596 14.8494 174.309 15.0483 174.099 15.304C173.888 15.554 173.783 15.8778 173.783 16.2756C173.783 16.8438 173.991 17.2727 174.405 17.5625C174.82 17.8523 175.349 17.9972 175.991 17.9972ZM184.724 20V6.90909H187.715V9.09091H187.852C188.09 8.33523 188.499 7.75284 189.079 7.34375C189.664 6.92898 190.332 6.72159 191.082 6.72159C191.252 6.72159 191.442 6.73011 191.653 6.74716C191.869 6.75852 192.048 6.77841 192.19 6.80682V9.64489C192.059 9.59943 191.852 9.55966 191.567 9.52557C191.289 9.4858 191.019 9.46591 190.758 9.46591C190.195 9.46591 189.69 9.58807 189.241 9.83239C188.798 10.071 188.448 10.4034 188.192 10.8295C187.937 11.2557 187.809 11.7472 187.809 12.304V20H184.724Z" fill="black"/>
<path d="M104.149 20.2301C103.121 20.2301 102.2 19.9659 101.388 19.4375C100.575 18.9091 99.9332 18.142 99.4616 17.1364C98.99 16.1307 98.7542 14.9091 98.7542 13.4716C98.7542 12.017 98.9929 10.7898 99.4701 9.78977C99.9531 8.78409 100.604 8.02557 101.422 7.5142C102.24 6.99716 103.152 6.73864 104.158 6.73864C104.925 6.73864 105.555 6.86932 106.05 7.13068C106.544 7.38636 106.936 7.69602 107.226 8.05966C107.516 8.41761 107.74 8.75568 107.899 9.07386H108.027V2.54545H111.121V20H108.087V17.9375H107.899C107.74 18.2557 107.51 18.5937 107.209 18.9517C106.908 19.304 106.51 19.6051 106.016 19.8551C105.521 20.1051 104.899 20.2301 104.149 20.2301ZM105.01 17.6989C105.663 17.6989 106.22 17.5227 106.68 17.1705C107.141 16.8125 107.49 16.3153 107.729 15.679C107.967 15.0426 108.087 14.3011 108.087 13.4545C108.087 12.608 107.967 11.8722 107.729 11.2472C107.496 10.6222 107.149 10.1364 106.689 9.78977C106.234 9.44318 105.675 9.26989 105.01 9.26989C104.322 9.26989 103.749 9.44886 103.288 9.80682C102.828 10.1648 102.482 10.6591 102.249 11.2898C102.016 11.9205 101.899 12.642 101.899 13.4545C101.899 14.2727 102.016 15.0028 102.249 15.6449C102.487 16.2812 102.837 16.7841 103.297 17.1534C103.763 17.517 104.334 17.6989 105.01 17.6989ZM119.724 20.2557C118.411 20.2557 117.278 19.983 116.323 19.4375C115.374 18.8864 114.644 18.108 114.133 17.1023C113.622 16.0909 113.366 14.9006 113.366 13.5312C113.366 12.1847 113.622 11.0028 114.133 9.9858C114.65 8.96307 115.372 8.16761 116.298 7.59943C117.224 7.02557 118.312 6.73864 119.562 6.73864C120.369 6.73864 121.13 6.86932 121.846 7.13068C122.568 7.38636 123.204 7.78409 123.755 8.32386C124.312 8.86364 124.749 9.55114 125.068 10.3864C125.386 11.2159 125.545 12.2045 125.545 13.3523V14.2983H114.815V12.2188H122.587C122.582 11.6278 122.454 11.1023 122.204 10.642C121.954 10.1761 121.604 9.80966 121.156 9.54261C120.712 9.27557 120.195 9.14205 119.604 9.14205C118.974 9.14205 118.42 9.29545 117.943 9.60227C117.465 9.90341 117.093 10.3011 116.826 10.7955C116.565 11.2841 116.431 11.821 116.426 12.4062V14.2216C116.426 14.983 116.565 15.6364 116.843 16.1818C117.122 16.7216 117.511 17.1364 118.011 17.4261C118.511 17.7102 119.096 17.8523 119.766 17.8523C120.215 17.8523 120.622 17.7898 120.985 17.6648C121.349 17.5341 121.664 17.3438 121.931 17.0938C122.198 16.8438 122.4 16.5341 122.536 16.1648L125.417 16.4886C125.235 17.25 124.889 17.9148 124.377 18.483C123.872 19.0455 123.224 19.483 122.434 19.7955C121.644 20.1023 120.741 20.2557 119.724 20.2557Z" fill="#9B9B9B"/>
</svg>
